<svg xmlns="http://www.w3.org/2000/svg" fill="none" viewBox="0 0 14 14" id="Bluesky-Logo--Streamline-Flex" height="14" width="14"><desc>Bluesky Logo Streamline Icon: https://streamlinehq.com</desc><g id="bluesky-social-media"><path id="Union" stroke="#000000" stroke-linecap="round" stroke-linejoin="round" d="M2.56005 7.45413c0.53915 0.15194 1.09626 0.28871 1.63445 0.40067 -0.49279 0.09195 -1.00128 0.20533 -1.49744 0.33496 -0.9214 0.24071 -1.39637 1.23633 -0.94071 2.06874 0.50747 0.9271 1.14481 1.7491 1.91583 2.4751 0.69 0.6496 1.79344 0.4671 2.28339 -0.3427 0.42445 -0.7016 0.76956 -1.429 1.04443 -2.3347 0.27487 0.9057 0.61998 1.6331 1.04443 2.3347 0.48995 0.8098 1.59339 0.9923 2.28337 0.3427 0.771 -0.726 1.4084 -1.548 1.9159 -2.4751 0.4556 -0.83241 -0.0194 -1.82803 -0.9408 -2.06874 -0.4961 -0.12963 -1.0046 -0.24301 -1.4974 -0.33496 0.5382 -0.11196 1.0953 -0.24873 1.6344 -0.40067 0.9838 -0.27724 1.6847 -1.1181 1.8355 -2.12439 0.0895 -0.59788 0.1745 -1.24894 0.2057 -1.74076 0.0325 -0.51198 0.0196 -1.14848 -0.0057 -1.70721 -0.032 -0.7072 -0.7148 -1.195974 -1.3766 -0.936006C9.12428 2.11432 7.65109 4.44938 7 6.09686 6.34891 4.44938 4.87572 2.11432 1.90119 0.945764 1.23944 0.685796 0.556578 1.17457 0.524586 1.88177 0.49931 2.4405 0.486362 3.077 0.518878 3.58898c0.031235 0.49182 0.116207 1.14288 0.205756 1.74076 0.150719 1.00629 0.851626 1.84715 1.835416 2.12439Z" stroke-width="1"></path></g></svg>